{"title":"Border.Run.2012.BRRip.XviD-DiN","uid":8128084,"size":1466520142,"categoryP":"video","categoryS":"movies","magnet":"?xt=urn:btih:c996b4682080cf7003db1ad171ac352b2d981c78&amp;dn=Border.Run.2012.BRRip.XviD-DiN&amp;tr=udp%3A%2F%2Ftracker.openbittorrent.com%3A80&amp;tr=udp%3A%2F%2Fopen.demonii.com%3A1337&amp;tr=udp%3A%2F%2Ftracker.coppersurfer.tk%3A6969&amp;tr=udp%3A%2F%2Fexodus.desync.com%3A6969","seeders":0,"leechers":3,"uploader":"juggs99","files":4,"time":1360531408,"description":" &lt;a href=&quot;http://www.imdb.com/title/tt2069955/&quot; rel=&quot;nofollow&quot; target=&quot;_NEW&quot;&gt;http://www.imdb.com/title/tt2069955/&lt;/a&gt; \n\nGeneral \n\nComplete name                            : Border.Run.2012.BRRip.XviD-DiN \n\nFormat                                 : AVI \n\nFormat/Info                              : Audio Video Interleave \n\nFile size                                : 1.37 GiB \n\nDuration                               : 1h 36mn \n\nOverall bit rate                       : 2 029 Kbps \n\n\n\nVideo \n\nID                                     : 0 \n\nFormat                                 : MPEG-4 Visual \n\nFormat profile                         : Advanced Simple@L5 \n\nFormat settings, BVOP                    : 2 \n\nFormat settings, QPel                    : No \n\nFormat settings, GMC                   : No warppoints \n\nFormat settings, Matrix                  : Default (H.263) \n\nCodec ID                               : XVID \n\nCodec ID/Hint                            : XviD \n\nDuration                               : 1h 36mn \n\nBit rate                               : 1 574 Kbps \n\nWidth                                    : 720 pixels \n\nHeight                                 : 304 pixels \n\nDisplay aspect ratio                   : 2.35:1 \n\nFrame rate                             : 23.976 fps \n\nColor space                              : YUV \n\nChroma subsampling                     : 4:2:0 \n\nBit depth                                : 8 bits \n\nScan type                                : Progressive \n\nCompression mode                       : Lossy \n\nBits/(Pixel*Frame)                     : 0.300 \n\nStream size                              : 1.06 GiB (78%) \n\nWriting library                          : XviD 1.2.1 (UTC 2008-12-04) \n\n\n\nAudio \n\nID                                     : 1 \n\nFormat                                 : AC-3 \n\nFormat/Info                              : Audio Coding 3 \n\nMode extension                         : CM (complete main) \n\nFormat settings, Endianness              : Big \n\nCodec ID                               : 2000 \n\nDuration                               : 1h 36mn \n\nBit rate mode                            : Constant \n\nBit rate                               : 448 Kbps \n\nChannel(s)                             : 6 channels \n\nChannel positions                        : Front: L C R, Side: L R, LFE \n\nSampling rate                            : 48.0 KHz \n\nBit depth                                : 16 bits \n\nCompression mode                       : Lossy \n\nStream size                              : 309 MiB (22%) \n\nAlignment                                : Aligned on interleaves \n\nInterleave, duration                   : 64 ms (1.53 video frames) \n\nInterleave, preload duration           : 192 ms \n\nTitle                                    : borderrun\n\n &lt;a href=&quot;\nhttp://www.shotpix.com/images/75500499367955631765.png&quot; rel=&quot;nofollow&quot; target=&quot;_NEW&quot;&gt;\nhttp://www.shotpix.com/images/75500499367955631765.png&lt;/a&gt; &lt;a href=&quot;\nhttp://www.shotpix.com/images/60163900016829237597.png&quot; rel=&quot;nofollow&quot; target=&quot;_NEW&quot;&gt;\nhttp://www.shotpix.com/images/60163900016829237597.png&lt;/a&gt; &lt;a href=&quot;\nhttp://www.shotpix.com/images/12628541316636368570.pngmtiumsduchess&quot; rel=&quot;nofollow&quot; target=&quot;_NEW&quot;&gt;\nhttp://www.shotpix.com/images/12628541316636368570.pngmtiumsduchess&lt;/a&gt;","torrent":{"xt":"urn:btih:c996b4682080cf7003db1ad171ac352b2d981c78","amp;dn":"Border.Run.2012.BRRip.XviD-DiN","amp;tr":["udp%3A%2F%2Ftracker.openbittorrent.com%3A80","udp%3A%2F%2Fopen.demonii.com%3A1337","udp%3A%2F%2Ftracker.coppersurfer.tk%3A6969","udp%3A%2F%2Fexodus.desync.com%3A6969"],"infoHash":"c996b4682080cf7003db1ad171ac352b2d981c78","infoHashBuffer":{"type":"Buffer","data":[201,150,180,104,32,128,207,112,3,219,26,209,113,172,53,43,45,152,28,120]},"announce":[],"urlList":[]}}